<svg width="145" height="61" viewBox="0 0 145 61" fill="none" xmlns="http://www.w3.org/2000/svg">
<rect x="118.58" y="34.6203" width="12.2248" height="104.51" transform="rotate(90.3401 118.58 34.6203)" fill="#CBC5B3" fill-opacity="0.5"/>
<g filter="url(#filter0_d_44_2)">
<path d="M25.55 21.85C26.9 21.85 28.05 22.0833 29 22.55C29.9667 23 30.7 23.65 31.2 24.5C31.7167 25.35 31.975 26.3833 31.975 27.6C31.975 28.3167 31.8667 29.025 31.65 29.725C31.4333 30.425 31.0833 31.0667 30.6 31.65C30.1333 32.2167 29.5083 32.675 28.725 33.025C27.9417 33.3583 26.9917 33.525 25.875 33.525H23.225V40H20.55V21.85H25.55ZM25.875 30.95C26.5417 30.95 27.1 30.8417 27.55 30.625C28 30.3917 28.35 30.1 28.6 29.75C28.8667 29.4 29.05 29.0417 29.15 28.675C29.2667 28.2917 29.325 27.95 29.325 27.65C29.325 27.3167 29.2667 26.9667 29.15 26.6C29.05 26.2167 28.875 25.8667 28.625 25.55C28.375 25.2167 28.0333 24.95 27.6 24.75C27.1667 24.5333 26.625 24.425 25.975 24.425H23.225V30.95H25.875ZM35.3885 34.65C35.3885 33.6 35.6385 32.6583 36.1385 31.825C36.6385 30.975 37.3301 30.3083 38.2135 29.825C39.0968 29.3417 40.1051 29.1 41.2385 29.1C42.3885 29.1 43.3968 29.3417 44.2635 29.825C45.1301 30.3083 45.7968 30.975 46.2635 31.825C46.7468 32.6583 46.9885 33.6 46.9885 34.65C46.9885 35.7 46.7468 36.65 46.2635 37.5C45.7968 38.35 45.1301 39.025 44.2635 39.525C43.3968 40.0083 42.3801 40.25 41.2135 40.25C40.0968 40.25 39.0968 40.025 38.2135 39.575C37.3468 39.125 36.6551 38.4833 36.1385 37.65C35.6385 36.8 35.3885 35.8 35.3885 34.65ZM37.9885 34.675C37.9885 35.325 38.1301 35.9167 38.4135 36.45C38.6968 36.9667 39.0801 37.3833 39.5635 37.7C40.0468 38 40.5885 38.15 41.1885 38.15C41.8051 38.15 42.3551 38 42.8385 37.7C43.3218 37.3833 43.6968 36.9667 43.9635 36.45C44.2468 35.9167 44.3885 35.325 44.3885 34.675C44.3885 34.025 44.2468 33.4417 43.9635 32.925C43.6968 32.4083 43.3218 31.9917 42.8385 31.675C42.3551 31.3583 41.8051 31.2 41.1885 31.2C40.5718 31.2 40.0218 31.3583 39.5385 31.675C39.0551 31.9917 38.6718 32.4167 38.3885 32.95C38.1218 33.4667 37.9885 34.0417 37.9885 34.675ZM53.5836 29.525L53.8336 32.525L53.7086 32.125C53.9919 31.4917 54.3919 30.95 54.9086 30.5C55.4253 30.05 55.9586 29.7083 56.5086 29.475C57.0753 29.225 57.5503 29.1 57.9336 29.1L57.8086 31.65C57.0086 31.6 56.3086 31.75 55.7086 32.1C55.1253 32.45 54.6669 32.9167 54.3336 33.5C54.0003 34.0833 53.8336 34.7083 53.8336 35.375V40H51.2836V29.525H53.5836ZM63.1039 24.925H65.6789V29.55H68.4789V31.575H65.6789V40H63.1039V31.575H61.2539V29.55H63.1039V24.925ZM73.3842 40V31.8H71.6092V29.525H73.3842V25.275C73.3842 23.775 73.7425 22.6167 74.4592 21.8C75.1758 20.9833 76.2175 20.575 77.5842 20.575C77.9508 20.575 78.3592 20.6333 78.8092 20.75C79.2592 20.85 79.6592 21.0167 80.0092 21.25L78.9342 23.125C78.7842 22.9583 78.6092 22.8417 78.4092 22.775C78.2258 22.7083 78.0342 22.675 77.8342 22.675C77.2508 22.675 76.7925 22.875 76.4592 23.275C76.1258 23.675 75.9592 24.3583 75.9592 25.325V29.525H79.2592V31.8H75.9592V40H73.3842ZM82.0389 34.65C82.0389 33.6 82.2889 32.6583 82.7889 31.825C83.2889 30.975 83.9805 30.3083 84.8639 29.825C85.7472 29.3417 86.7555 29.1 87.8889 29.1C89.0389 29.1 90.0472 29.3417 90.9139 29.825C91.7805 30.3083 92.4472 30.975 92.9139 31.825C93.3972 32.6583 93.6389 33.6 93.6389 34.65C93.6389 35.7 93.3972 36.65 92.9139 37.5C92.4472 38.35 91.7805 39.025 90.9139 39.525C90.0472 40.0083 89.0305 40.25 87.8639 40.25C86.7472 40.25 85.7472 40.025 84.8639 39.575C83.9972 39.125 83.3055 38.4833 82.7889 37.65C82.2889 36.8 82.0389 35.8 82.0389 34.65ZM84.6389 34.675C84.6389 35.325 84.7805 35.9167 85.0639 36.45C85.3472 36.9667 85.7305 37.3833 86.2139 37.7C86.6972 38 87.2389 38.15 87.8389 38.15C88.4555 38.15 89.0055 38 89.4889 37.7C89.9722 37.3833 90.3472 36.9667 90.6139 36.45C90.8972 35.9167 91.0389 35.325 91.0389 34.675C91.0389 34.025 90.8972 33.4417 90.6139 32.925C90.3472 32.4083 89.9722 31.9917 89.4889 31.675C89.0055 31.3583 88.4555 31.2 87.8389 31.2C87.2222 31.2 86.6722 31.3583 86.1889 31.675C85.7055 31.9917 85.3222 32.4167 85.0389 32.95C84.7722 33.4667 84.6389 34.0417 84.6389 34.675ZM90.8639 24.3L87.5889 27.65H85.9639L88.0139 24.3H90.8639ZM97.934 20.575H100.509V40H97.934V20.575ZM105.678 29.525H108.253V40H105.678V29.525ZM105.528 25.775C105.528 25.375 105.686 25.0417 106.003 24.775C106.32 24.5083 106.661 24.375 107.028 24.375C107.411 24.375 107.753 24.5083 108.053 24.775C108.353 25.0417 108.503 25.375 108.503 25.775C108.503 26.175 108.353 26.5083 108.053 26.775C107.753 27.025 107.411 27.15 107.028 27.15C106.661 27.15 106.32 27.025 106.003 26.775C105.686 26.5083 105.528 26.175 105.528 25.775ZM112.522 34.65C112.522 33.6 112.772 32.6583 113.272 31.825C113.772 30.975 114.464 30.3083 115.347 29.825C116.231 29.3417 117.239 29.1 118.372 29.1C119.522 29.1 120.531 29.3417 121.397 29.825C122.264 30.3083 122.931 30.975 123.397 31.825C123.881 32.6583 124.122 33.6 124.122 34.65C124.122 35.7 123.881 36.65 123.397 37.5C122.931 38.35 122.264 39.025 121.397 39.525C120.531 40.0083 119.514 40.25 118.347 40.25C117.231 40.25 116.231 40.025 115.347 39.575C114.481 39.125 113.789 38.4833 113.272 37.65C112.772 36.8 112.522 35.8 112.522 34.65ZM115.122 34.675C115.122 35.325 115.264 35.9167 115.547 36.45C115.831 36.9667 116.214 37.3833 116.697 37.7C117.181 38 117.722 38.15 118.322 38.15C118.939 38.15 119.489 38 119.972 37.7C120.456 37.3833 120.831 36.9667 121.097 36.45C121.381 35.9167 121.522 35.325 121.522 34.675C121.522 34.025 121.381 33.4417 121.097 32.925C120.831 32.4083 120.456 31.9917 119.972 31.675C119.489 31.3583 118.939 31.2 118.322 31.2C117.706 31.2 117.156 31.3583 116.672 31.675C116.189 31.9917 115.806 32.4167 115.522 32.95C115.256 33.4667 115.122 34.0417 115.122 34.675Z" fill="#DBE2E2" shape-rendering="crispEdges"/>
<path d="M29 22.55L28.7795 22.9989L28.789 23.0033L29 22.55ZM31.2 24.5L30.769 24.7535L30.7727 24.7597L31.2 24.5ZM31.65 29.725L31.1724 29.5772L31.1724 29.5772L31.65 29.725ZM30.6 31.65L30.215 31.331L30.214 31.3321L30.6 31.65ZM28.725 33.025L28.9208 33.4852L28.929 33.4815L28.725 33.025ZM23.225 33.525V33.025C22.9489 33.025 22.725 33.2489 22.725 33.525H23.225ZM23.225 40V40.5C23.5011 40.5 23.725 40.2761 23.725 40H23.225ZM20.55 40H20.05C20.05 40.2761 20.2739 40.5 20.55 40.5V40ZM20.55 21.85V21.35C20.2739 21.35 20.05 21.5739 20.05 21.85H20.55ZM27.55 30.625L27.7669 31.0755C27.7714 31.0734 27.7758 31.0711 27.7802 31.0689L27.55 30.625ZM28.6 29.75L28.2023 29.447C28.1992 29.4511 28.1961 29.4552 28.1931 29.4594L28.6 29.75ZM29.15 28.675L28.6717 28.5294C28.6702 28.5341 28.6689 28.5387 28.6676 28.5434L29.15 28.675ZM29.15 26.6L28.6662 26.7262C28.6684 26.7347 28.6709 26.7432 28.6735 26.7516L29.15 26.6ZM28.625 25.55L28.2249 25.8501L28.2326 25.8598L28.625 25.55ZM27.6 24.75L27.3764 25.1972C27.3811 25.1995 27.3857 25.2018 27.3905 25.204L27.6 24.75ZM23.225 24.425V23.925C22.9489 23.925 22.725 24.1489 22.725 24.425H23.225ZM23.225 30.95H22.725C22.725 31.2261 22.9489 31.45 23.225 31.45V30.95ZM25.55 22.35C26.844 22.35 27.9144 22.5738 28.7795 22.9988L29.2205 22.1012C28.1856 21.5929 26.956 21.35 25.55 21.35V22.35ZM28.789 23.0033C29.6716 23.4142 30.3246 23.998 30.769 24.7535L31.631 24.2465C31.0754 23.302 30.2617 22.5858 29.211 22.0967L28.789 23.0033ZM30.7727 24.7597C31.2322 25.5156 31.475 26.4545 31.475 27.6H32.475C32.475 26.3122 32.2011 25.1844 31.6273 24.2403L30.7727 24.7597ZM31.475 27.6C31.475 28.2654 31.3745 28.924 31.1724 29.5772L32.1276 29.8728C32.3588 29.126 32.475 28.3679 32.475 27.6H31.475ZM31.1724 29.5772C30.9757 30.2125 30.658 30.7964 30.215 31.331L30.985 31.969C31.5087 31.337 31.891 30.6375 32.1276 29.8728L31.1724 29.5772ZM30.214 31.3321C29.8042 31.8299 29.2457 32.2447 28.521 32.5685L28.929 33.4815C29.771 33.1053 30.4625 32.6035 30.986 31.9679L30.214 31.3321ZM28.5292 32.5649C27.8238 32.8651 26.9443 33.025 25.875 33.025V34.025C27.039 34.025 28.0595 33.8516 28.9208 33.4851L28.5292 32.5649ZM25.875 33.025H23.225V34.025H25.875V33.025ZM22.725 33.525V40H23.725V33.525H22.725ZM23.225 39.5H20.55V40.5H23.225V39.5ZM21.05 40V21.85H20.05V40H21.05ZM20.55 22.35H25.55V21.35H20.55V22.35ZM25.875 31.45C26.5928 31.45 27.2305 31.3338 27.7669 31.0755L27.3331 30.1745C26.9695 30.3496 26.4905 30.45 25.875 30.45V31.45ZM27.7802 31.0689C28.2879 30.8056 28.7034 30.4655 29.0069 30.0406L28.1931 29.4594C27.9966 29.7345 27.7121 29.9777 27.3198 30.1811L27.7802 31.0689ZM28.9977 30.053C29.2973 29.6598 29.513 29.2443 29.6324 28.8066L28.6676 28.5434C28.587 28.839 28.436 29.1402 28.2023 29.447L28.9977 30.053ZM29.6283 28.8206C29.7549 28.4048 29.825 28.0127 29.825 27.65H28.825C28.825 27.8873 28.7785 28.1785 28.6717 28.5294L29.6283 28.8206ZM29.825 27.65C29.825 27.258 29.7564 26.8567 29.6265 26.4484L28.6735 26.7516C28.777 27.0767 28.825 27.3753 28.825 27.65H29.825ZM29.6338 26.4738C29.516 26.0223 29.3094 25.6101 29.0174 25.2402L28.2326 25.8598C28.4406 26.1233 28.584 26.411 28.6662 26.7262L29.6338 26.4738ZM29.025 25.25C28.7184 24.8412 28.3071 24.5257 27.8095 24.296L27.3905 25.204C27.7596 25.3743 28.0316 25.5921 28.225 25.85L29.025 25.25ZM27.8236 24.3028C27.3013 24.0416 26.6773 23.925 25.975 23.925V24.925C26.5727 24.925 27.032 25.025 27.3764 25.1972L27.8236 24.3028ZM25.975 23.925H23.225V24.925H25.975V23.925ZM22.725 24.425V30.95H23.725V24.425H22.725ZM23.225 31.45H25.875V30.45H23.225V31.45ZM36.1385 31.825L36.5672 32.0823L36.5694 32.0785L36.1385 31.825ZM38.2135 29.825L38.4535 30.2636L38.4535 30.2636L38.2135 29.825ZM44.2635 29.825L44.0199 30.2617L44.0199 30.2617L44.2635 29.825ZM46.2635 31.825L45.8251 32.0657L45.831 32.0759L46.2635 31.825ZM46.2635 37.5L45.8288 37.2528L45.8252 37.2594L46.2635 37.5ZM44.2635 39.525L44.507 39.9617L44.5133 39.9581L44.2635 39.525ZM38.2135 39.575L37.9831 40.0188L37.9865 40.0205L38.2135 39.575ZM36.1385 37.65L35.7074 37.9036L35.7135 37.9135L36.1385 37.65ZM38.4135 36.45L37.9719 36.6846L37.9751 36.6904L38.4135 36.45ZM39.5635 37.7L39.2894 38.1184L39.2998 38.1248L39.5635 37.7ZM42.8385 37.7L43.1022 38.1249L43.1125 38.1182L42.8385 37.7ZM43.9635 36.45L43.5219 36.2154L43.5192 36.2207L43.9635 36.45ZM43.9635 32.925L43.519 33.1544L43.5251 33.1654L43.9635 32.925ZM42.8385 31.675L42.5645 32.0932L42.5645 32.0932L42.8385 31.675ZM39.5385 31.675L39.8125 32.0932L39.8125 32.0932L39.5385 31.675ZM38.3885 32.95L37.9469 32.7154L37.9442 32.7207L38.3885 32.95ZM35.8885 34.65C35.8885 33.6831 36.1176 32.8316 36.5672 32.0822L35.7097 31.5678C35.1594 32.485 34.8885 33.5169 34.8885 34.65H35.8885ZM36.5694 32.0785C37.0227 31.308 37.6476 30.7046 38.4535 30.2636L37.9735 29.3864C37.0127 29.9121 36.2543 30.642 35.7075 31.5715L36.5694 32.0785ZM38.4535 30.2636C39.2544 29.8254 40.1783 29.6 41.2385 29.6V28.6C40.032 28.6 38.9392 28.8579 37.9735 29.3864L38.4535 30.2636ZM41.2385 29.6C42.3169 29.6 43.2388 29.8261 44.0199 30.2617L44.507 29.3883C43.5548 28.8573 42.4601 28.6 41.2385 28.6V29.6ZM44.0199 30.2617C44.8066 30.7004 45.4048 31.3 45.8252 32.0656L46.7018 31.5844C46.1888 30.65 45.4537 29.9163 44.507 29.3883L44.0199 30.2617ZM45.831 32.0759C46.2662 32.8262 46.4885 33.6799 46.4885 34.65H47.4885C47.4885 33.5201 47.2275 32.4905 46.696 31.5741L45.831 32.0759ZM46.4885 34.65C46.4885 35.62 46.2662 36.4837 45.8288 37.2528L46.6981 37.7472C47.2274 36.8163 47.4885 35.78 47.4885 34.65H46.4885ZM45.8252 37.2594C45.404 38.0265 44.8037 38.6361 44.0136 39.0919L44.5133 39.9581C45.4566 39.4139 46.1896 38.6735 46.7018 37.7406L45.8252 37.2594ZM44.0199 39.0883C43.2398 39.5234 42.3099 39.75 41.2135 39.75V40.75C42.4504 40.75 43.5538 40.4933 44.507 39.9617L44.0199 39.0883ZM41.2135 39.75C40.1656 39.75 39.245 39.5394 38.4404 39.1295L37.9865 40.0205C38.9486 40.5106 40.028 40.75 41.2135 40.75V39.75ZM38.4439 39.1313C37.6575 38.7229 37.0329 38.1437 36.5634 37.3865L35.7135 37.9135C36.2774 38.823 37.0362 39.5271 37.9831 40.0187L38.4439 39.1313ZM36.5694 37.3965C36.1217 36.6353 35.8885 35.7258 35.8885 34.65H34.8885C34.8885 35.8742 35.1553 36.9647 35.7075 37.9035L36.5694 37.3965ZM37.4885 34.675C37.4885 35.4004 37.6473 36.0736 37.9719 36.6846L38.855 36.2154C38.613 35.7598 38.4885 35.2496 38.4885 34.675H37.4885ZM37.9751 36.6904C38.297 37.2775 38.7362 37.7557 39.2895 38.1182L39.8375 37.2818C39.4241 37.0109 39.0966 36.6559 38.8519 36.2096L37.9751 36.6904ZM39.2998 38.1248C39.8667 38.4767 40.5006 38.65 41.1885 38.65V37.65C40.6763 37.65 40.2269 37.5233 39.8272 37.2752L39.2998 38.1248ZM41.1885 38.65C41.8902 38.65 42.533 38.4781 43.1022 38.1248L42.5748 37.2752C42.1773 37.5219 41.7201 37.65 41.1885 37.65V38.65ZM43.1125 38.1182C43.6684 37.754 44.1018 37.2721 44.4078 36.6793L43.5192 36.2207C43.2918 36.6612 42.9752 37.0126 42.5645 37.2818L43.1125 38.1182ZM44.405 36.6846C44.7296 36.0736 44.8885 35.4004 44.8885 34.675H43.8885C43.8885 35.2496 43.764 35.7598 43.5219 36.2154L44.405 36.6846ZM44.8885 34.675C44.8885 33.9498 44.7297 33.2823 44.4019 32.6846L43.5251 33.1654C43.7639 33.601 43.8885 34.1002 43.8885 34.675H44.8885ZM44.4078 32.6957C44.1018 32.1029 43.6684 31.621 43.1125 31.2568L42.5645 32.0932C42.9752 32.3624 43.2918 32.7138 43.5192 33.1543L44.4078 32.6957ZM43.1125 31.2568C42.5422 30.8831 41.8956 30.7 41.1885 30.7V31.7C41.7147 31.7 42.1681 31.8336 42.5645 32.0932L43.1125 31.2568ZM41.1885 30.7C40.4813 30.7 39.8348 30.8831 39.2645 31.2568L39.8125 32.0932C40.2088 31.8336 40.6623 31.7 41.1885 31.7V30.7ZM39.2645 31.2568C38.7075 31.6217 38.2679 32.1112 37.9469 32.7154L38.83 33.1846C39.0757 32.7221 39.4028 32.3616 39.8125 32.0932L39.2645 31.2568ZM37.9442 32.7207C37.6377 33.3144 37.4885 33.9691 37.4885 34.675H38.4885C38.4885 34.1142 38.6059 33.6189 38.8328 33.1793L37.9442 32.7207ZM53.5836 29.525L54.0819 29.4835C54.0603 29.2243 53.8436 29.025 53.5836 29.025V29.525ZM53.8336 32.525L53.3564 32.6741C53.4324 32.9175 53.6793 33.0646 53.9295 33.0157C54.1797 32.9668 54.353 32.7375 54.3319 32.4835L53.8336 32.525ZM53.7086 32.125L53.2522 31.9208C53.2024 32.0321 53.195 32.1578 53.2314 32.2741L53.7086 32.125ZM54.9086 30.5L54.5802 30.123L54.5802 30.123L54.9086 30.5ZM56.5086 29.475L56.7039 29.9353L56.7104 29.9325L56.5086 29.475ZM57.9336 29.1L58.433 29.1245C58.4397 28.9878 58.3901 28.8543 58.2957 28.7552C58.2013 28.6561 58.0705 28.6 57.9336 28.6V29.1ZM57.8086 31.65L57.7774 32.149C57.9109 32.1574 58.0422 32.1119 58.1419 32.0227C58.2416 31.9335 58.3014 31.8081 58.308 31.6745L57.8086 31.65ZM55.7086 32.1L55.4566 31.6681L55.4513 31.6713L55.7086 32.1ZM54.3336 33.5L53.8995 33.2519L53.8995 33.2519L54.3336 33.5ZM53.8336 40V40.5C54.1097 40.5 54.3336 40.2761 54.3336 40H53.8336ZM51.2836 40H50.7836C50.7836 40.2761 51.0075 40.5 51.2836 40.5V40ZM51.2836 29.525V29.025C51.0075 29.025 50.7836 29.2489 50.7836 29.525H51.2836ZM53.0853 29.5665L53.3353 32.5665L54.3319 32.4835L54.0819 29.4835L53.0853 29.5665ZM54.3108 32.3759L54.1858 31.9759L53.2314 32.2741L53.3564 32.6741L54.3108 32.3759ZM54.165 32.3292C54.4191 31.7612 54.7757 31.2788 55.237 30.877L54.5802 30.123C54.0081 30.6212 53.5648 31.2221 53.2522 31.9208L54.165 32.3292ZM55.237 30.877C55.7197 30.4566 56.2089 30.1453 56.7039 29.9353L56.3133 29.0147C55.7083 29.2714 55.1309 29.6434 54.5802 30.123L55.237 30.877ZM56.7104 29.9325C57.248 29.6953 57.6496 29.6 57.9336 29.6V28.6C57.451 28.6 56.9025 28.7547 56.3068 29.0175L56.7104 29.9325ZM57.4342 29.0755L57.3092 31.6255L58.308 31.6745L58.433 29.1245L57.4342 29.0755ZM57.8398 31.151C56.9565 31.0958 56.1549 31.2608 55.4567 31.6681L55.9605 32.5319C56.4623 32.2392 57.0607 32.1042 57.7774 32.149L57.8398 31.151ZM55.4513 31.6713C54.7955 32.0648 54.2759 32.5932 53.8995 33.2519L54.7677 33.7481C55.058 33.2401 55.455 32.8352 55.9658 32.5287L55.4513 31.6713ZM53.8995 33.2519C53.5233 33.9102 53.3336 34.6206 53.3336 35.375H54.3336C54.3336 34.7961 54.4772 34.2565 54.7677 33.7481L53.8995 33.2519ZM53.3336 35.375V40H54.3336V35.375H53.3336ZM53.8336 39.5H51.2836V40.5H53.8336V39.5ZM51.7836 40V29.525H50.7836V40H51.7836ZM51.2836 30.025H53.5836V29.025H51.2836V30.025ZM63.1039 24.925V24.425C62.8278 24.425 62.6039 24.6489 62.6039 24.925H63.1039ZM65.6789 24.925H66.1789C66.1789 24.6489 65.955 24.425 65.6789 24.425V24.925ZM65.6789 29.55H65.1789C65.1789 29.8261 65.4028 30.05 65.6789 30.05V29.55ZM68.4789 29.55H68.9789C68.9789 29.2739 68.755 29.05 68.4789 29.05V29.55ZM68.4789 31.575V32.075C68.755 32.075 68.9789 31.8511 68.9789 31.575H68.4789ZM65.6789 31.575V31.075C65.4028 31.075 65.1789 31.2989 65.1789 31.575H65.6789ZM65.6789 40V40.5C65.955 40.5 66.1789 40.2761 66.1789 40H65.6789ZM63.1039 40H62.6039C62.6039 40.2761 62.8278 40.5 63.1039 40.5V40ZM63.1039 31.575H63.6039C63.6039 31.2989 63.38 31.075 63.1039 31.075V31.575ZM61.2539 31.575H60.7539C60.7539 31.8511 60.9778 32.075 61.2539 32.075V31.575ZM61.2539 29.55V29.05C60.9778 29.05 60.7539 29.2739 60.7539 29.55H61.2539ZM63.1039 29.55V30.05C63.38 30.05 63.6039 29.8261 63.6039 29.55H63.1039ZM63.1039 25.425H65.6789V24.425H63.1039V25.425ZM65.1789 24.925V29.55H66.1789V24.925H65.1789ZM65.6789 30.05H68.4789V29.05H65.6789V30.05ZM67.9789 29.55V31.575H68.9789V29.55H67.9789ZM68.4789 31.075H65.6789V32.075H68.4789V31.075ZM65.1789 31.575V40H66.1789V31.575H65.1789ZM65.6789 39.5H63.1039V40.5H65.6789V39.5ZM63.6039 40V31.575H62.6039V40H63.6039ZM63.1039 31.075H61.2539V32.075H63.1039V31.075ZM61.7539 31.575V29.55H60.7539V31.575H61.7539ZM61.2539 30.05H63.1039V29.05H61.2539V30.05ZM63.6039 29.55V24.925H62.6039V29.55H63.6039ZM73.3842 40H72.8842C72.8842 40.2761 73.108 40.5 73.3842 40.5V40ZM73.3842 31.8H73.8842C73.8842 31.5239 73.6603 31.3 73.3842 31.3V31.8ZM71.6092 31.8H71.1092C71.1092 32.0761 71.333 32.3 71.6092 32.3V31.8ZM71.6092 29.525V29.025C71.333 29.025 71.1092 29.2489 71.1092 29.525H71.6092ZM73.3842 29.525V30.025C73.6603 30.025 73.8842 29.8011 73.8842 29.525H73.3842ZM74.4592 21.8L74.0834 21.4702L74.0834 21.4702L74.4592 21.8ZM78.8092 20.75L78.6837 21.234C78.6893 21.2355 78.695 21.2368 78.7007 21.2381L78.8092 20.75ZM80.0092 21.25L80.4429 21.4987C80.5738 21.2705 80.5054 20.9799 80.2865 20.834L80.0092 21.25ZM78.9342 23.125L78.5625 23.4595C78.6698 23.5787 78.8277 23.6392 78.9871 23.6222C79.1466 23.6052 79.2882 23.5128 79.3679 23.3737L78.9342 23.125ZM78.4092 22.775L78.2382 23.2451L78.2511 23.2493L78.4092 22.775ZM76.4592 23.275L76.8433 23.5951L76.8433 23.5951L76.4592 23.275ZM75.9592 29.525H75.4592C75.4592 29.8011 75.683 30.025 75.9592 30.025V29.525ZM79.2592 29.525H79.7592C79.7592 29.2489 79.5353 29.025 79.2592 29.025V29.525ZM79.2592 31.8V32.3C79.5353 32.3 79.7592 32.0761 79.7592 31.8H79.2592ZM75.9592 31.8V31.3C75.683 31.3 75.4592 31.5239 75.4592 31.8H75.9592ZM75.9592 40V40.5C76.2353 40.5 76.4592 40.2761 76.4592 40H75.9592ZM73.8842 40V31.8H72.8842V40H73.8842ZM73.3842 31.3H71.6092V32.3H73.3842V31.3ZM72.1092 31.8V29.525H71.1092V31.8H72.1092ZM71.6092 30.025H73.3842V29.025H71.6092V30.025ZM73.8842 29.525V25.275H72.8842V29.525H73.8842ZM73.8842 25.275C73.8842 23.8501 74.2244 22.8256 74.835 22.1298L74.0834 21.4702C73.2607 22.4077 72.8842 23.6999 72.8842 25.275H73.8842ZM74.835 22.1298C75.4332 21.4481 76.3215 21.075 77.5842 21.075V20.075C76.1135 20.075 74.9185 20.5186 74.0834 21.4702L74.835 22.1298ZM77.5842 21.075C77.899 21.075 78.2643 21.1253 78.6837 21.234L78.9347 20.266C78.4541 20.1414 78.0027 20.075 77.5842 20.075V21.075ZM78.7007 21.2381C79.0962 21.326 79.4379 21.4701 79.7318 21.666L80.2865 20.834C79.8805 20.5633 79.4221 20.374 78.9176 20.2619L78.7007 21.2381ZM79.5754 21.0013L78.5004 22.8763L79.3679 23.3737L80.4429 21.4987L79.5754 21.0013ZM79.3058 22.7905C79.1018 22.5638 78.8546 22.3964 78.5673 22.3007L78.2511 23.2493C78.3637 23.2869 78.4666 23.3529 78.5625 23.4595L79.3058 22.7905ZM78.5801 22.3051C78.3406 22.218 78.091 22.175 77.8342 22.175V23.175C77.9774 23.175 78.1111 23.1986 78.2383 23.2449L78.5801 22.3051ZM77.8342 22.175C77.1226 22.175 76.5156 22.4263 76.0751 22.9549L76.8433 23.5951C77.0695 23.3237 77.3791 23.175 77.8342 23.175V22.175ZM76.0751 22.9549C75.6252 23.4948 75.4592 24.3293 75.4592 25.325H76.4592C76.4592 24.3873 76.6265 23.8552 76.8433 23.5951L76.0751 22.9549ZM75.4592 25.325V29.525H76.4592V25.325H75.4592ZM75.9592 30.025H79.2592V29.025H75.9592V30.025ZM78.7592 29.525V31.8H79.7592V29.525H78.7592ZM79.2592 31.3H75.9592V32.3H79.2592V31.3ZM75.4592 31.8V40H76.4592V31.8H75.4592ZM75.9592 39.5H73.3842V40.5H75.9592V39.5ZM82.7889 31.825L83.2176 32.0823L83.2198 32.0785L82.7889 31.825ZM84.8639 29.825L85.1039 30.2636L85.1039 30.2636L84.8639 29.825ZM90.9139 29.825L90.6703 30.2617L90.6703 30.2617L90.9139 29.825ZM92.9139 31.825L92.4755 32.0657L92.4814 32.0759L92.9139 31.825ZM92.9139 37.5L92.4792 37.2528L92.4756 37.2594L92.9139 37.5ZM90.9139 39.525L91.1574 39.9617L91.1637 39.9581L90.9139 39.525ZM84.8639 39.575L84.6335 40.0188L84.6369 40.0205L84.8639 39.575ZM82.7889 37.65L82.3578 37.9036L82.3639 37.9135L82.7889 37.65ZM85.0639 36.45L84.6223 36.6846L84.6255 36.6904L85.0639 36.45ZM86.2139 37.7L85.9398 38.1184L85.9502 38.1248L86.2139 37.7ZM89.4889 37.7L89.7526 38.1249L89.7629 38.1182L89.4889 37.7ZM90.6139 36.45L90.1723 36.2154L90.1696 36.2207L90.6139 36.45ZM90.6139 32.925L90.1694 33.1544L90.1755 33.1654L90.6139 32.925ZM89.4889 31.675L89.2149 32.0932L89.2149 32.0932L89.4889 31.675ZM86.1889 31.675L86.4629 32.0932L86.4629 32.0932L86.1889 31.675ZM85.0389 32.95L84.5973 32.7154L84.5946 32.7207L85.0389 32.95ZM90.8639 24.3L91.2214 24.6495C91.3621 24.5057 91.4028 24.2915 91.3247 24.106C91.2467 23.9206 91.0651 23.8 90.8639 23.8V24.3ZM87.5889 27.65V28.15C87.7234 28.15 87.8523 28.0958 87.9464 27.9995L87.5889 27.65ZM85.9639 27.65L85.5374 27.389C85.443 27.5433 85.4392 27.7366 85.5277 27.8944C85.6161 28.0523 85.783 28.15 85.9639 28.15V27.65ZM88.0139 24.3V23.8C87.8398 23.8 87.6782 23.8905 87.5874 24.039L88.0139 24.3ZM82.5389 34.65C82.5389 33.6831 82.768 32.8316 83.2176 32.0822L82.3601 31.5678C81.8098 32.485 81.5389 33.5169 81.5389 34.65H82.5389ZM83.2198 32.0785C83.6731 31.308 84.298 30.7046 85.1039 30.2636L84.6239 29.3864C83.6631 29.9121 82.9047 30.642 82.3579 31.5715L83.2198 32.0785ZM85.1039 30.2636C85.9048 29.8254 86.8287 29.6 87.8889 29.6V28.6C86.6823 28.6 85.5896 28.8579 84.6239 29.3864L85.1039 30.2636ZM87.8889 29.6C88.9673 29.6 89.8892 29.8261 90.6703 30.2617L91.1574 29.3883C90.2052 28.8573 89.1105 28.6 87.8889 28.6V29.6ZM90.6703 30.2617C91.457 30.7004 92.0552 31.3 92.4756 32.0656L93.3522 31.5844C92.8392 30.65 92.1041 29.9163 91.1574 29.3883L90.6703 30.2617ZM92.4814 32.0759C92.9166 32.8262 93.1389 33.6799 93.1389 34.65H94.1389C94.1389 33.5201 93.8778 32.4905 93.3464 31.5741L92.4814 32.0759ZM93.1389 34.65C93.1389 35.62 92.9166 36.4837 92.4792 37.2528L93.3485 37.7472C93.8778 36.8163 94.1389 35.78 94.1389 34.65H93.1389ZM92.4756 37.2594C92.0544 38.0265 91.4541 38.6361 90.664 39.0919L91.1637 39.9581C92.107 39.4139 92.84 38.6735 93.3522 37.7406L92.4756 37.2594ZM90.6703 39.0883C89.8902 39.5234 88.9603 39.75 87.8639 39.75V40.75C89.1007 40.75 90.2042 40.4933 91.1574 39.9617L90.6703 39.0883ZM87.8639 39.75C86.816 39.75 85.8954 39.5394 85.0908 39.1295L84.6369 40.0205C85.599 40.5106 86.6784 40.75 87.8639 40.75V39.75ZM85.0943 39.1313C84.3078 38.7229 83.6833 38.1437 83.2138 37.3865L82.3639 37.9135C82.9278 38.823 83.6866 39.5271 84.6335 40.0187L85.0943 39.1313ZM83.2198 37.3965C82.7721 36.6353 82.5389 35.7258 82.5389 34.65H81.5389C81.5389 35.8742 81.8057 36.9647 82.3579 37.9035L83.2198 37.3965ZM84.1389 34.675C84.1389 35.4004 84.2977 36.0736 84.6223 36.6846L85.5054 36.2154C85.2634 35.7598 85.1389 35.2496 85.1389 34.675H84.1389ZM84.6255 36.6904C84.9474 37.2775 85.3866 37.7557 85.9399 38.1182L86.4879 37.2818C86.0745 37.0109 85.747 36.6559 85.5023 36.2096L84.6255 36.6904ZM85.9502 38.1248C86.5171 38.4767 87.151 38.65 87.8389 38.65V37.65C87.3267 37.65 86.8773 37.5233 86.4775 37.2752L85.9502 38.1248ZM87.8389 38.65C88.5406 38.65 89.1834 38.4781 89.7525 38.1248L89.2252 37.2752C88.8277 37.5219 88.3705 37.65 87.8389 37.65V38.65ZM89.7629 38.1182C90.3188 37.754 90.7522 37.2721 91.0582 36.6793L90.1696 36.2207C89.9422 36.6612 89.6256 37.0126 89.2149 37.2818L89.7629 38.1182ZM91.0554 36.6846C91.38 36.0736 91.5389 35.4004 91.5389 34.675H90.5389C90.5389 35.2496 90.4144 35.7598 90.1723 36.2154L91.0554 36.6846ZM91.5389 34.675C91.5389 33.9498 91.3801 33.2823 91.0523 32.6846L90.1755 33.1654C90.4143 33.601 90.5389 34.1002 90.5389 34.675H91.5389ZM91.0582 32.6957C90.7522 32.1029 90.3188 31.621 89.7629 31.2568L89.2149 32.0932C89.6256 32.3624 89.9422 32.7138 90.1696 33.1543L91.0582 32.6957ZM89.7629 31.2568C89.1926 30.8831 88.546 30.7 87.8389 30.7V31.7C88.365 31.7 88.8185 31.8336 89.2149 32.0932L89.7629 31.2568ZM87.8389 30.7C87.1317 30.7 86.4852 30.8831 85.9149 31.2568L86.4629 32.0932C86.8592 31.8336 87.3127 31.7 87.8389 31.7V30.7ZM85.9149 31.2568C85.3579 31.6217 84.9183 32.1112 84.5973 32.7154L85.4804 33.1846C85.7261 32.7221 86.0532 32.3616 86.4629 32.0932L85.9149 31.2568ZM84.5946 32.7207C84.2881 33.3144 84.1389 33.9691 84.1389 34.675H85.1389C85.1389 34.1142 85.2563 33.6189 85.4832 33.1793L84.5946 32.7207ZM90.5063 23.9505L87.2313 27.3005L87.9464 27.9995L91.2214 24.6495L90.5063 23.9505ZM87.5889 27.15H85.9639V28.15H87.5889V27.15ZM86.3904 27.911L88.4404 24.561L87.5874 24.039L85.5374 27.389L86.3904 27.911ZM88.0139 24.8H90.8639V23.8H88.0139V24.8ZM97.934 20.575V20.075C97.6578 20.075 97.434 20.2989 97.434 20.575H97.934ZM100.509 20.575H101.009C101.009 20.2989 100.785 20.075 100.509 20.075V20.575ZM100.509 40V40.5C100.785 40.5 101.009 40.2761 101.009 40H100.509ZM97.934 40H97.434C97.434 40.2761 97.6578 40.5 97.934 40.5V40ZM97.934 21.075H100.509V20.075H97.934V21.075ZM100.009 20.575V40H101.009V20.575H100.009ZM100.509 39.5H97.934V40.5H100.509V39.5ZM98.434 40V20.575H97.434V40H98.434ZM105.678 29.525V29.025C105.402 29.025 105.178 29.2489 105.178 29.525H105.678ZM108.253 29.525H108.753C108.753 29.2489 108.529 29.025 108.253 29.025V29.525ZM108.253 40V40.5C108.529 40.5 108.753 40.2761 108.753 40H108.253ZM105.678 40H105.178C105.178 40.2761 105.402 40.5 105.678 40.5V40ZM106.003 24.775L105.681 24.3925L106.003 24.775ZM108.053 24.775L108.385 24.4013L108.385 24.4013L108.053 24.775ZM108.053 26.775L108.373 27.1591C108.377 27.1557 108.381 27.1522 108.385 27.1487L108.053 26.775ZM106.003 26.775L105.681 27.1575C105.685 27.1608 105.689 27.1642 105.693 27.1674L106.003 26.775ZM105.678 30.025H108.253V29.025H105.678V30.025ZM107.753 29.525V40H108.753V29.525H107.753ZM108.253 39.5H105.678V40.5H108.253V39.5ZM106.178 40V29.525H105.178V40H106.178ZM106.028 25.775C106.028 25.5283 106.117 25.3329 106.325 25.1575L105.681 24.3925C105.256 24.7504 105.028 25.2217 105.028 25.775H106.028ZM106.325 25.1575C106.564 24.9563 106.795 24.875 107.028 24.875V23.875C106.528 23.875 106.076 24.0604 105.681 24.3925L106.325 25.1575ZM107.028 24.875C107.283 24.875 107.508 24.9592 107.721 25.1487L108.385 24.4013C107.998 24.0575 107.54 23.875 107.028 23.875V24.875ZM107.721 25.1487C107.915 25.3209 108.003 25.5184 108.003 25.775H109.003C109.003 25.2316 108.792 24.7625 108.385 24.4013L107.721 25.1487ZM108.003 25.775C108.003 26.0316 107.915 26.2291 107.721 26.4013L108.385 27.1487C108.792 26.7875 109.003 26.3184 109.003 25.775H108.003ZM107.733 26.3909C107.521 26.5675 107.292 26.65 107.028 26.65V27.65C107.531 27.65 107.985 27.4825 108.373 27.1591L107.733 26.3909ZM107.028 26.65C106.785 26.65 106.551 26.5703 106.313 26.3826L105.693 27.1674C106.089 27.4797 106.538 27.65 107.028 27.65V26.65ZM106.325 26.3925C106.117 26.2171 106.028 26.0217 106.028 25.775H105.028C105.028 26.3283 105.256 26.7996 105.681 27.1575L106.325 26.3925ZM113.272 31.825L113.701 32.0823L113.703 32.0785L113.272 31.825ZM115.347 29.825L115.587 30.2636L115.587 30.2636L115.347 29.825ZM121.397 29.825L121.154 30.2617L121.154 30.2617L121.397 29.825ZM123.397 31.825L122.959 32.0657L122.965 32.0759L123.397 31.825ZM123.397 37.5L122.963 37.2528L122.959 37.2594L123.397 37.5ZM121.397 39.525L121.641 39.9617L121.647 39.9581L121.397 39.525ZM115.347 39.575L115.117 40.0188L115.12 40.0205L115.347 39.575ZM113.272 37.65L112.841 37.9036L112.847 37.9135L113.272 37.65ZM115.547 36.45L115.106 36.6846L115.109 36.6904L115.547 36.45ZM116.697 37.7L116.423 38.1184L116.434 38.1248L116.697 37.7ZM119.972 37.7L120.236 38.1249L120.246 38.1182L119.972 37.7ZM121.097 36.45L120.656 36.2154L120.653 36.2207L121.097 36.45ZM121.097 32.925L120.653 33.1544L120.659 33.1654L121.097 32.925ZM119.972 31.675L119.698 32.0932L119.698 32.0932L119.972 31.675ZM116.672 31.675L116.946 32.0932L116.946 32.0932L116.672 31.675ZM115.522 32.95L115.081 32.7154L115.078 32.7207L115.522 32.95ZM113.022 34.65C113.022 33.6831 113.251 32.8316 113.701 32.0822L112.844 31.5678C112.293 32.485 112.022 33.5169 112.022 34.65H113.022ZM113.703 32.0785C114.156 31.308 114.781 30.7046 115.587 30.2636L115.107 29.3864C114.146 29.9121 113.388 30.642 112.841 31.5715L113.703 32.0785ZM115.587 30.2636C116.388 29.8254 117.312 29.6 118.372 29.6V28.6C117.166 28.6 116.073 28.8579 115.107 29.3864L115.587 30.2636ZM118.372 29.6C119.451 29.6 120.373 29.8261 121.154 30.2617L121.641 29.3883C120.689 28.8573 119.594 28.6 118.372 28.6V29.6ZM121.154 30.2617C121.94 30.7004 122.539 31.3 122.959 32.0656L123.836 31.5844C123.323 30.65 122.587 29.9163 121.641 29.3883L121.154 30.2617ZM122.965 32.0759C123.4 32.8262 123.622 33.6799 123.622 34.65H124.622C124.622 33.5201 124.361 32.4905 123.83 31.5741L122.965 32.0759ZM123.622 34.65C123.622 35.62 123.4 36.4837 122.963 37.2528L123.832 37.7472C124.361 36.8163 124.622 35.78 124.622 34.65H123.622ZM122.959 37.2594C122.538 38.0265 121.937 38.6361 121.147 39.0919L121.647 39.9581C122.59 39.4139 123.323 38.6735 123.836 37.7406L122.959 37.2594ZM121.154 39.0883C120.374 39.5234 119.444 39.75 118.347 39.75V40.75C119.584 40.75 120.688 40.4933 121.641 39.9617L121.154 39.0883ZM118.347 39.75C117.299 39.75 116.379 39.5394 115.574 39.1295L115.12 40.0205C116.082 40.5106 117.162 40.75 118.347 40.75V39.75ZM115.578 39.1313C114.791 38.7229 114.167 38.1437 113.697 37.3865L112.847 37.9135C113.411 38.823 114.17 39.5271 115.117 40.0187L115.578 39.1313ZM113.703 37.3965C113.255 36.6353 113.022 35.7258 113.022 34.65H112.022C112.022 35.8742 112.289 36.9647 112.841 37.9035L113.703 37.3965ZM114.622 34.675C114.622 35.4004 114.781 36.0736 115.106 36.6846L115.989 36.2154C115.747 35.7598 115.622 35.2496 115.622 34.675H114.622ZM115.109 36.6904C115.431 37.2775 115.87 37.7557 116.423 38.1182L116.971 37.2818C116.558 37.0109 116.23 36.6559 115.986 36.2096L115.109 36.6904ZM116.434 38.1248C117.001 38.4767 117.634 38.65 118.322 38.65V37.65C117.81 37.65 117.361 37.5233 116.961 37.2752L116.434 38.1248ZM118.322 38.65C119.024 38.65 119.667 38.4781 120.236 38.1248L119.709 37.2752C119.311 37.5219 118.854 37.65 118.322 37.65V38.65ZM120.246 38.1182C120.802 37.754 121.236 37.2721 121.542 36.6793L120.653 36.2207C120.426 36.6612 120.109 37.0126 119.698 37.2818L120.246 38.1182ZM121.539 36.6846C121.863 36.0736 122.022 35.4004 122.022 34.675H121.022C121.022 35.2496 120.898 35.7598 120.656 36.2154L121.539 36.6846ZM122.022 34.675C122.022 33.9498 121.863 33.2823 121.536 32.6846L120.659 33.1654C120.898 33.601 121.022 34.1002 121.022 34.675H122.022ZM121.542 32.6957C121.236 32.1029 120.802 31.621 120.246 31.2568L119.698 32.0932C120.109 32.3624 120.426 32.7138 120.653 33.1543L121.542 32.6957ZM120.246 31.2568C119.676 30.8831 119.029 30.7 118.322 30.7V31.7C118.848 31.7 119.302 31.8336 119.698 32.0932L120.246 31.2568ZM118.322 30.7C117.615 30.7 116.969 30.8831 116.398 31.2568L116.946 32.0932C117.343 31.8336 117.796 31.7 118.322 31.7V30.7ZM116.398 31.2568C115.841 31.6217 115.402 32.1112 115.081 32.7154L115.964 33.1846C116.21 32.7221 116.537 32.3616 116.946 32.0932L116.398 31.2568ZM115.078 32.7207C114.771 33.3144 114.622 33.9691 114.622 34.675H115.622C115.622 34.1142 115.74 33.6189 115.967 33.1793L115.078 32.7207Z" fill="#DBE2E2" fill-opacity="0.1"/>
</g>
<defs>
<filter id="filter0_d_44_2" x="0.549988" y="0.575012" width="143.572" height="59.675" filterUnits="userSpaceOnUse" color-interpolation-filters="sRGB">
<feFlood flood-opacity="0" result="BackgroundImageFix"/>
<feColorMatrix in="SourceAlpha" type="matrix" values="0 0 0 0 0 0 0 0 0 0 0 0 0 0 0 0 0 0 127 0" result="hardAlpha"/>
<feOffset/>
<feGaussianBlur stdDeviation="10"/>
<feComposite in2="hardAlpha" operator="out"/>
<feColorMatrix type="matrix" values="0 0 0 0 0 0 0 0 0 0 0 0 0 0 0 0 0 0 0.3 0"/>
<feBlend mode="normal" in2="BackgroundImageFix" result="effect1_dropShadow_44_2"/>
<feBlend mode="normal" in="SourceGraphic" in2="effect1_dropShadow_44_2" result="shape"/>
</filter>
</defs>
</svg>
